<svg width="300" height="200" xmlns="http://www.w3.org/2000/svg" xmlns:xlink="http://www.w3.org/1999/xlink">
<title>Flang</title>
<defs>
<g id="Start" stroke-linecap="butt" stroke-width="4" stroke="black" fill="transparent">
<circle cx="0" cy="-16" r="16"/>
<path d="M -16 -16 C -16 0 0 16 0 32"/>
</g>
<g id="End" stroke-linecap="butt" stroke-width="4" stroke="black" fill="transparent">
<circle cx="0" cy="16" r="16"/>
<path d="M 0 -32 C 0 -16 16 0 16 16"/>
</g>
<g id="Print" stroke-linecap="round" stroke-width="4" stroke="black" fill="transparent">
<circle cx="0" cy="0" r="32"/>
<rect x="-16" y="-16" width="32" height="28" rx="2" ry="2" stroke-width="2"/>
<rect x="-13" y="-13" width="26" height="22" fill="black" stroke-width="2"/>
<text x="-12" y="-3" font-size="9" stroke="none" fill="white">Print</text>
<rect x="-8" y="12" width="16" height="4" fill="black" stroke="transparent"/>
<rect x="-10" y="15" width="20" height="2" rx="2" ry="2" stroke-width="2"/>
</g>
<g id="Constant" stroke-width="4" stroke="black" fill="transparent">
<rect x="-32" y="-32" width="64" height="64"/>
</g>
<g id="Keyboard" stroke-linecap="round" stroke-width="2" stroke="black" fill="transparent">
<circle cx="0" cy="0" r="32" stroke-width="4"/>
<rect x="-16" y="-3" width="32" height="15" rx="2" ry="2"/>
<line x1="-16" x2="16" y1="0" y2="0"/>
<line x1="-16" x2="16" y1="3" y2="3"/>
<line x1="-16" x2="16" y1="6" y2="6"/>
<line x1="-16" x2="16" y1="9" y2="9"/>
<line x1="-13" x2="-13" y1="-3" y2="12"/>
<line x1="-10" x2="-10" y1="-3" y2="12"/>
<line x1="-7" x2="-7" y1="-3" y2="12"/>
<line x1="-4" x2="-4" y1="-3" y2="12"/>
<line x1="-1" x2="-1" y1="-3" y2="12"/>
<line x1="2" x2="2" y1="-3" y2="12"/>
<line x1="5" x2="5" y1="-3" y2="12"/>
<line x1="8" x2="8" y1="-3" y2="12"/>
<line x1="11" x2="11" y1="-3" y2="12"/>
<path d="M -12 -3 C -12 -15 0 -25 0 -32"/>
</g>
</defs>
<use x="50" y="50" xlink:href="#Keyboard" />
</svg>
